<svg xmlns="http://www.w3.org/2000/svg" xmlns:xlink="http://www.w3.org/1999/xlink" xmlns:inkscape="http://www.inkscape.org/namespaces/inkscape" version="1.1" width="2012.61" height="1301.08" viewBox="0 0 2012.61 1301.08">
<defs>
<clipPath id="clip_1">
<path transform="matrix(1,0,0,-1,0,1301.08)" d="M0 1301.08H2012.608V0H0Z"/>
</clipPath>
</defs>
<g clip-path="url(#clip_1)">
<path transform="matrix(1,0,0,-1,926.3257,757.96749)" d="M0 0C3.549 9.644 11.179 18.217 17.148 26.582 24.297 36.6 36.818 40.828 48.594 44.406 60.369 47.983 74.406 45.549 82.636 36.399 86.778 31.795 89.192 25.941 92.259 20.561 95.163 15.467 98.683 10.756 101.986 5.912 116.578-15.489 126.911-39.44 137.504-63.076 139.986-68.613 142.522-74.202 146.268-78.975 153.068-87.638 163.288-92.934 170.895-100.898 173.466-103.591 175.852-106.979 175.511-110.687 175.154-114.577 171.813-117.622 168.182-119.063 158.125-123.052 146.393-117.027 140.074-108.244 133.756-99.461 128.179-88.554 125.384-78.102 123.96-72.777 120.61-68.472 117.281-64.079 113.952-59.686 110.964-55.905 105.491-56.555 99.691-57.244 97.857-61.307 93.97-65.666 83.985-76.864 74-88.061 64.014-99.258 58.888-105.007 53.337-111.027 45.911-113.068 38.918-114.991 31.456-113.019 24.718-110.338 16.273-106.978 7.996-102.235 2.828-94.759-3.531-85.56-5.94-73.963-7.843-62.944-11.5-41.776-10.79-17.875 0 0"/>
<path transform="matrix(1,0,0,-1,927.531,758.29977)" d="M0 0C3.639 9.723 10.793 17.632 16.779 25.944 22.244 33.532 30.686 37.756 39.3 40.809 43.54 42.312 47.913 43.877 52.363 44.614 56.722 45.335 61.273 45.224 65.585 44.263 69.84 43.315 73.948 41.538 77.381 38.826 81.187 35.818 83.79 31.762 86.074 27.544 88.607 22.866 91.054 18.219 94.038 13.801 97.139 9.209 100.388 4.726 103.366 .05 109.247-9.184 114.438-18.84 119.265-28.661 124.138-38.578 128.644-48.67 133.153-58.756 135.349-63.67 137.433-68.672 140.082-73.364 142.58-77.789 145.711-81.709 149.451-85.145 153.063-88.465 157.034-91.36 160.872-94.406 164.623-97.382 168.796-100.585 171.401-104.67 172.686-106.685 173.52-109.059 172.832-111.44 172.209-113.597 170.524-115.319 168.659-116.483 164.983-118.778 160.364-119.199 156.19-118.292 151.806-117.339 147.742-115.09 144.39-112.134 140.702-108.882 138.018-104.704 135.495-100.526 132.686-95.874 130.209-91.001 128.213-85.944 126.349-81.219 125.439-76.089 122.997-71.613 121.765-69.353 120.265-67.253 118.726-65.194 117.332-63.331 115.956-61.43 114.424-59.676 111.668-56.52 108.208-54.442 103.897-55.025 99.619-55.603 96.871-58.342 94.284-61.56 90.816-65.873 87.005-69.918 83.322-74.048 75.569-82.742 67.902-91.524 60.048-100.128 56.812-103.673 53.364-107.171 49.145-109.543 44.453-112.179 39.155-112.747 33.898-111.815 28.787-110.91 23.823-108.989 19.157-106.751 14.797-104.66 10.605-102.112 7.064-98.794-.314-91.881-3.718-81.893-5.901-72.272-10.265-53.034-12.01-32.113-5.873-13.053-4.438-8.595-2.533-4.318-.126-.299 .703 1.085-1.458 2.344-2.285 .963-12.784-16.571-13.732-38.307-11.009-58.077-9.608-68.251-7.681-78.754-3.365-88.138-1.267-92.701 1.492-96.959 5.152-100.426 8.727-103.814 12.941-106.482 17.349-108.645 26.727-113.245 38.157-117.252 48.306-112.755 52.778-110.773 56.527-107.452 59.886-103.96 63.813-99.878 67.495-95.546 71.264-91.319 75.324-86.767 79.384-82.214 83.444-77.661 87.349-73.282 91.43-69.005 95.14-64.459 97.832-61.16 100.384-57.623 105.034-57.41 109.704-57.197 112.595-61.212 115.128-64.551 118.352-68.803 121.591-73.086 123.029-78.308 124.49-83.613 126.511-88.749 128.924-93.692 131.33-98.621 134.129-103.364 137.292-107.845 139.972-111.641 143.271-114.907 147.256-117.326 154.672-121.826 165.4-123.321 172.234-116.866 175.856-113.445 176.446-108.595 174.073-104.273 171.699-99.951 167.534-96.586 163.759-93.534 159.787-90.322 155.626-87.337 151.82-83.923 147.864-80.375 144.607-76.365 142.024-71.716 139.331-66.868 137.197-61.712 134.936-56.654 132.619-51.47 130.299-46.286 127.927-41.126 123.159-30.752 118.176-20.466 112.583-10.508 109.811-5.572 106.889-.719 103.778 4.011 100.602 8.838 97.124 13.464 94.041 18.353 91.197 22.864 89.034 27.75 86.238 32.286 83.734 36.348 80.593 39.883 76.552 42.462 68.955 47.31 59.364 48.544 50.612 46.828 45.993 45.923 41.404 44.266 37 42.626 32.621 40.995 28.308 39.078 24.389 36.512 20.415 33.91 17.152 30.708 14.376 26.866 11.257 22.55 7.919 18.395 4.883 14.02 1.979 9.836-.621 5.447-2.411 .665-2.975-.844-.56-1.496 0 0" fill="#231f20"/>
<path transform="matrix(1,0,0,-1,655.4998,751.2408)" d="M0 0C3.549 9.644 11.179 18.217 17.148 26.582 24.297 36.6 36.818 40.828 48.594 44.406 60.369 47.983 74.406 45.549 82.636 36.399 86.778 31.795 89.192 25.941 92.259 20.561 95.163 15.467 98.683 10.756 101.986 5.912 116.578-15.488 126.911-39.44 137.504-63.076 139.986-68.613 142.522-74.202 146.268-78.975 153.068-87.638 163.288-92.934 170.895-100.898 173.466-103.591 175.852-106.979 175.511-110.687 175.154-114.577 171.813-117.622 168.182-119.063 158.125-123.052 146.393-117.027 140.074-108.244 133.756-99.461 128.179-88.554 125.384-78.102 123.96-72.777 120.61-68.471 117.281-64.079 113.952-59.686 110.964-55.905 105.491-56.555 99.691-57.243 97.857-61.307 93.97-65.666 83.985-76.864 74-88.061 64.014-99.258 58.888-105.007 53.337-111.027 45.911-113.068 38.918-114.991 31.456-113.019 24.718-110.338 16.273-106.978 7.996-102.235 2.828-94.759-3.531-85.56-5.94-73.963-7.843-62.944-11.5-41.776-10.79-17.875 0 0"/>
<path transform="matrix(1,0,0,-1,656.7052,751.57296)" d="M0 0C3.639 9.723 10.793 17.632 16.779 25.944 22.244 33.532 30.686 37.756 39.3 40.809 43.54 42.312 47.913 43.877 52.363 44.614 56.722 45.335 61.273 45.224 65.585 44.263 69.84 43.315 73.948 41.538 77.381 38.826 81.187 35.818 83.79 31.762 86.074 27.544 88.607 22.866 91.054 18.219 94.037 13.801 97.139 9.209 100.388 4.726 103.366 .05 109.247-9.184 114.438-18.84 119.265-28.661 124.138-38.578 128.644-48.67 133.153-58.756 135.349-63.67 137.433-68.672 140.082-73.364 142.58-77.789 145.711-81.709 149.451-85.145 153.063-88.465 157.034-91.36 160.872-94.406 164.623-97.382 168.795-100.585 171.401-104.67 172.686-106.685 173.52-109.059 172.832-111.44 172.209-113.597 170.524-115.319 168.659-116.483 164.983-118.778 160.364-119.199 156.19-118.292 151.806-117.339 147.742-115.09 144.39-112.134 140.702-108.882 138.018-104.704 135.495-100.526 132.686-95.874 130.209-91.001 128.213-85.944 126.349-81.219 125.439-76.089 122.997-71.613 121.765-69.353 120.265-67.253 118.726-65.194 117.332-63.331 115.956-61.43 114.424-59.676 111.668-56.52 108.208-54.442 103.897-55.025 99.619-55.603 96.871-58.342 94.284-61.56 90.816-65.873 87.005-69.918 83.322-74.048 75.569-82.742 67.901-91.524 60.048-100.128 56.812-103.673 53.364-107.171 49.145-109.543 44.453-112.179 39.155-112.747 33.898-111.815 28.787-110.91 23.823-108.989 19.157-106.751 14.797-104.66 10.605-102.112 7.064-98.794-.314-91.881-3.718-81.893-5.901-72.272-10.265-53.034-12.01-32.113-5.873-13.053-4.438-8.595-2.533-4.318-.126-.299 .703 1.085-1.458 2.344-2.285 .963-12.784-16.571-13.732-38.307-11.009-58.077-9.608-68.251-7.681-78.754-3.365-88.138-1.267-92.701 1.492-96.959 5.151-100.426 8.727-103.814 12.94-106.482 17.349-108.645 26.727-113.245 38.157-117.252 48.306-112.755 52.777-110.773 56.527-107.452 59.886-103.96 63.813-99.878 67.495-95.546 71.264-91.319 75.324-86.767 79.384-82.214 83.444-77.661 87.349-73.282 91.43-69.005 95.14-64.459 97.832-61.16 100.384-57.623 105.034-57.41 109.704-57.197 112.595-61.212 115.128-64.551 118.352-68.803 121.591-73.086 123.029-78.308 124.49-83.613 126.511-88.749 128.924-93.692 131.33-98.621 134.129-103.364 137.292-107.845 139.972-111.641 143.27-114.907 147.256-117.326 154.672-121.826 165.399-123.321 172.234-116.866 175.856-113.445 176.446-108.595 174.073-104.273 171.699-99.951 167.534-96.586 163.759-93.534 159.787-90.322 155.626-87.337 151.82-83.923 147.864-80.375 144.607-76.365 142.024-71.716 139.331-66.868 137.197-61.712 134.936-56.654 132.619-51.47 130.299-46.286 127.927-41.126 123.159-30.752 118.176-20.466 112.583-10.508 109.811-5.572 106.889-.719 103.778 4.011 100.602 8.839 97.124 13.464 94.041 18.353 91.196 22.864 89.034 27.75 86.238 32.286 83.734 36.348 80.593 39.883 76.552 42.462 68.955 47.31 59.364 48.544 50.612 46.828 45.992 45.923 41.404 44.266 37 42.626 32.621 40.995 28.308 39.078 24.389 36.512 20.415 33.91 17.152 30.708 14.376 26.866 11.257 22.55 7.919 18.396 4.883 14.02 1.979 9.836-.621 5.447-2.411 .665-2.975-.844-.56-1.496 0 0" fill="#231f20"/>
<path transform="matrix(1,0,0,-1,1202.8346,878.57138)" d="M0 0C20.846 5.268 70.726 25.374 92.065 27.734 113.404 30.095 136.078 38.17 147.332 57.034 155.317 70.418 156.199 86.991 155.535 102.695 154.942 116.722 153.036 131.415 144.99 142.735 127.71 167.05 92.186 164.853 66.159 178.545 82.971 172.418 102.22 186.039 107.289 203.685 112.359 221.331 106.119 240.651 95.891 255.727 73.938 288.091 32.443 308.369-5.106 300.721L-15.517 298.316C-14.169 198.717-8.992 99.174 0 0"/>
<path transform="matrix(1,0,0,-1,1203.167,879.77676)" d="M0 0C8.389 2.131 16.598 5 24.788 7.78 35.152 11.299 45.488 14.905 55.897 18.292 65.182 21.312 74.541 24.281 84.09 26.36 88.173 27.249 92.277 27.686 96.405 28.293 102.25 29.152 108.04 30.443 113.657 32.279 124.57 35.847 135.073 41.577 142.727 50.287 151.366 60.119 155.106 72.728 156.211 85.567 156.793 92.328 156.71 99.137 156.359 105.908 156.013 112.568 155.344 119.253 153.818 125.756 151.05 137.548 145.038 147.972 135.204 155.203 126.54 161.574 116.097 165.025 105.848 167.896 95.199 170.88 84.332 173.258 74.031 177.359 71.449 178.387 68.921 179.543 66.458 180.83 66.136 180.069 65.815 179.307 65.494 178.545 80.276 173.296 95.969 182.397 103.812 194.884 113.474 210.269 110.656 230.079 103.34 245.782 96.112 261.298 84.092 274.553 70.304 284.544 56.963 294.211 41.365 301.058 25.055 303.636 17.038 304.903 8.869 305.171 .804 304.189-4.365 303.559-9.38 302.297-14.445 301.127-15.024 300.994-15.603 300.86-16.182 300.726-16.708 300.605-17.107 300.052-17.1 299.521-16.57 260.601-15.462 221.688-13.766 182.802-12.07 143.918-9.791 105.06-6.929 66.245-5.328 44.551-3.545 22.87-1.582 1.205-1.438-.384 1.063-.399 .918 1.205-2.593 39.964-5.528 78.775-7.875 117.622-10.224 156.473-11.988 195.36-13.168 234.264-13.828 256.012-14.304 277.765-14.6 299.521-14.906 299.119-15.212 298.717-15.517 298.316-12.051 299.116-8.593 299.965-5.116 300.718 2.279 302.322 10.023 302.61 17.551 302.027 33.342 300.804 48.689 295.298 62.129 287.013 75.748 278.617 87.746 267.18 96.249 253.586 105.406 238.945 111.133 219.925 105.039 203.023 100.216 189.648 86.128 177.793 71.28 179.694 69.531 179.918 67.819 180.367 66.159 180.956 64.826 181.43 63.945 179.325 65.196 178.672 84.445 168.616 106.986 167.672 126.253 157.765 136.311 152.593 144.313 144.672 148.598 134.092 153.525 121.922 154.205 108.115 154.127 95.132 154.048 81.946 152.169 68.214 144.741 56.995 138.39 47.402 128.556 40.698 117.983 36.494 112.626 34.363 107.05 32.801 101.398 31.679 96.725 30.751 91.985 30.373 87.302 29.542 78.387 27.961 69.654 25.275 61.031 22.56 41.992 16.566 23.33 9.333 4.167 3.738 2.563 3.269 .954 2.822-.665 2.411-2.223 2.015-1.563-.397 0 0" fill="#231f20"/>
<path transform="matrix(1,0,0,-1,431.097,615.0519)" d="M0 0C-9.429-17.114-14.703-34.167-8.296-52.626-5.261-61.371 .789-68.696 5.174-76.848 14.159-93.555 15.879-113.304 14.363-132.213 12.847-151.122 8.308-169.645 5.485-188.403 3.279-203.058 2.288-218.789 9.059-231.972 15.799-245.094 29.273-253.55 43.199-258.413 84.733-272.918 130.088-260.335 173.635-254.081 182.431-252.817 191.552-251.723 199.193-247.188 206.835-242.653 212.6-233.574 210.283-224.995 208.026-216.64 199.273-211.818 190.936-209.494 178.714-206.086 165.578-206.017 153.321-209.295 144.553-211.64 136.298-215.638 127.537-218.007 105.163-224.057 80.027-218.558 62.112-203.854 44.197-189.149 33.915-165.659 35.09-142.512 36.02-124.181 43.566-106.953 49.441-89.564 56.001-70.146 60.571-50.057 63.058-29.712 65.144-12.637 65.677 5.187 59.51 21.246 56.317 29.564 50.539 37.818 41.881 39.921 31.777 42.375 21.556 35.485 15.472 27.053 9.387 18.621 4.473 9.385 0 0" fill="#231f20"/>
<path transform="matrix(1,0,0,-1,430.0177,614.4211)" d="M0 0C-7.677-13.992-13.361-29.608-10.475-45.76-9.048-53.742-5.523-60.728-1.249-67.533 3.021-74.33 7.142-81.018 9.768-88.654 21.083-121.56 10.175-156.219 5.283-189.208 3.034-204.374 2.022-221.026 9.927-234.833 16.887-246.991 29.383-254.852 42.226-259.629 73.907-271.413 108.547-266.826 141.033-261.455 149.553-260.046 158.059-258.55 166.588-257.199 174.624-255.926 182.878-255.233 190.742-253.073 197.732-251.152 204.272-247.77 208.695-241.877 212.665-236.586 214.475-229.609 211.886-223.31 209.41-217.287 203.778-213.344 197.966-210.882 190.833-207.86 182.861-206.551 175.151-206.304 166.742-206.035 158.35-207.27 150.339-209.817 142.327-212.365 134.646-215.927 126.451-217.901 112.093-221.359 96.755-220.028 83.036-214.657 69.417-209.326 57.748-199.814 49.716-187.603 41.807-175.578 37.356-161.284 37.328-146.873 37.296-130.018 43.421-113.995 48.997-98.346 54.869-81.864 59.616-65.069 62.739-47.841 65.739-31.293 68.131-13.998 66.122 2.81 65.2 10.531 63.371 18.312 59.889 25.305 56.976 31.154 52.583 36.74 46.458 39.411 40.044 42.209 32.955 41.076 27.005 37.678 20.378 33.894 15.835 27.933 11.778 21.627 7.331 14.715 3.539 7.41 0 0-.69-1.445 1.465-2.714 2.159-1.262 5.698 6.149 9.49 13.452 13.936 20.365 18.02 26.715 22.621 32.688 29.497 36.183 35.813 39.393 43.056 39.347 48.903 35.151 54.497 31.137 57.924 24.608 60.128 18.246 65.524 2.669 64.856-14.213 62.887-30.343 60.808-47.372 57.228-64.225 52.264-80.645 47.452-96.562 40.561-111.896 37.001-128.179 33.841-142.633 34.167-157.404 39.019-171.45 43.548-184.56 51.558-196.551 62.308-205.368 73.194-214.297 86.575-219.884 100.518-221.683 107.432-222.576 114.433-222.498 121.324-221.447 129.167-220.251 136.519-217.443 143.923-214.702 151.74-211.809 159.625-209.495 167.984-208.931 176.217-208.375 184.588-209.208 192.504-211.567 198.565-213.373 205.038-216.508 208.469-222.076 212.167-228.077 210.627-235.244 206.536-240.615 201.933-246.659 194.797-249.626 187.594-251.286 179.847-253.073 171.852-253.832 164.008-255.094 131.531-260.319 98.136-268.004 65.137-262.907 50.562-260.656 35.511-256.026 23.764-246.795 18.358-242.547 13.763-237.275 10.763-231.059 7.391-224.073 6.219-216.247 6.165-208.551 6.108-200.569 7.203-192.637 8.492-184.777 9.904-176.176 11.594-167.624 13.106-159.04 15.953-142.876 18.189-126.431 16.7-109.998 16.016-102.44 14.589-94.925 12.094-87.747 9.548-80.42 5.728-73.888 1.599-67.362-2.629-60.682-6.301-53.963-7.868-46.13-9.401-38.472-8.906-30.583-6.957-23.049-4.975-15.389-1.636-8.177 2.159-1.262 2.933 .15 .775 1.412 0 0" fill="#231f20"/>
<path transform="matrix(1,0,0,-1,1221.3214,743.1567)" d="M0 0C14.538 1.546 26.129 4.259 42.008 4.865 56.617 5.423 71.588-1.852 80.367-13.543 83.285-17.429 85.463-22.008 85.792-26.857 86.528-37.719 78.068-47.062 68.98-53.057 50.2-65.443 19.337-70.539-2.439-64.886Z" fill="#ffffff"/>
<path transform="matrix(1,0,0,-1,1221.3214,744.4067)" d="M0 0C14.483 1.555 28.928 4.882 43.547 4.895 56.657 4.906 69.644-1.348 78.046-11.368 82.498-16.676 85.648-23.463 84.24-30.51 82.956-36.939 78.681-42.322 73.853-46.551 64.438-54.799 52.039-59.451 39.97-62.136 27.659-64.875 14.525-65.722 2.078-63.365 .673-63.099-.722-62.786-2.107-62.431-1.801-62.833-1.495-63.234-1.189-63.636-.915-56.341-.641-49.046-.366-41.75L.947-6.824C1.048-4.133 1.149-1.441 1.25 1.25 1.31 2.859-1.19 2.856-1.25 1.25-1.524-6.045-1.798-13.341-2.073-20.636L-3.385-55.562C-3.487-58.254-3.588-60.945-3.689-63.636-3.709-64.174-3.287-64.709-2.771-64.842 9.909-68.095 23.451-67.732 36.259-65.427 48.989-63.135 62.046-58.733 72.467-50.871 77.846-46.813 82.726-41.73 85.337-35.428 88.114-28.726 87.317-21.532 83.801-15.26 77.128-3.354 63.722 4.829 50.409 6.852 42.964 7.984 35.293 7.112 27.861 6.245 20.454 5.381 13.099 4.135 5.704 3.176 3.805 2.93 1.904 2.704 0 2.5-1.583 2.33-1.6-.172 0 0" fill="#231f20"/>
<path transform="matrix(1,0,0,-1,1455.6598,725.86666)" d="M0 0C3.974-22.08 1.895-44.83 3.028-67.287 4.162-89.744 9.361-113.658 24.298-128.603 40.977-145.291 66.81-146.382 86.437-135.255 106.064-124.128 119.926-102.717 128.117-79.547 136.307-56.376 139.44-31.288 142.375-6.461 143.606 3.95 144.665 15.269 139.969 24.411 132.501 38.947 112.9 40.29 101.223 30.309 89.546 20.328 84.719 2.842 83.769-13.842 83.098-25.641 83.995-37.751 81.125-49.079 78.255-60.408 70.21-71.166 59.817-71.385 57.148-71.441 54.282-70.679 52.46-68.426 50.271-65.721 50.144-61.69 50.141-58.039 50.12-35.054 50.1-12.069 50.08 10.916 50.076 15.875 50.035 21.028 48.143 25.526 44.617 33.911 35.47 37.603 27.391 36.772 7.86 34.764-.345 23.098 0 0"/>
<path transform="matrix(1,0,0,-1,1454.4545,726.199)" d="M0 0C4.944-27.777 .393-56.201 4.698-84.041 8.153-106.382 17.843-130.181 40.065-139.516 50.133-143.746 61.429-144.482 72.066-142.188 82.903-139.849 92.647-134.24 100.851-126.875 119.215-110.387 129.503-86.568 135.485-63.087 138.957-49.457 141.123-35.536 142.934-21.601 143.833-14.678 144.75-7.74 145.412-.79 146.021 5.603 146.255 12.17 144.773 18.468 143.557 23.631 141.062 28.55 137.068 32.112 133.698 35.118 129.486 37.103 125.045 37.891 115.49 39.587 105.887 36.192 99.164 29.293 91.174 21.094 87.098 9.752 85.131-1.329 84.026-7.55 83.623-13.833 83.478-20.142 83.312-27.329 83.388-34.56 82.414-41.698 81.573-47.864 79.889-53.891 76.566-59.201 73.842-63.554 69.934-67.622 64.903-69.165 62.438-69.921 59.597-70.155 57.165-69.155 54.226-67.947 53.113-65.037 52.775-62.082 52.383-58.664 52.594-55.144 52.591-51.711 52.587-48.046 52.584-44.382 52.581-40.718 52.568-25.561 52.555-10.404 52.541 4.752 52.536 11.496 53.243 18.912 50.878 25.366 49.073 30.291 45.335 34.224 40.556 36.375 35.914 38.464 31.043 38.771 26.061 38.035 21.84 37.412 17.646 36.2 13.933 34.056 6.918 30.005 2.902 22.901 1.224 15.145 .173 10.289-.109 5.29-.045 .332-.024-1.275 2.476-1.28 2.455 .332 2.343 9.056 3.161 18.74 8.527 25.996 13.273 32.416 21.213 35.219 28.92 35.886 33.778 36.306 38.799 35.101 42.766 32.217 47.685 28.641 49.529 23.012 49.903 17.147 50.354 10.054 50.043 2.863 50.049-4.242 50.056-11.57 50.062-18.899 50.068-26.227 50.075-33.556 50.081-40.884 50.088-48.213 50.091-51.771 50.052-55.333 50.104-58.891 50.144-61.691 50.353-64.603 51.599-67.159 54.082-72.249 60.299-73.078 65.255-71.668 70.176-70.268 74.16-66.767 77.169-62.74 84.852-52.454 85.597-39.157 85.851-26.797 85.986-20.251 86.007-13.694 86.774-7.182 87.455-1.409 88.664 4.334 90.561 9.833 93.887 19.471 99.899 29.426 109.606 33.663 117.609 37.156 127.704 36.577 134.608 30.936 144.05 23.222 143.958 9.856 142.871-1.221 141.525-14.938 139.715-28.689 137.339-42.265 133.012-66.986 125.869-91.986 110.657-112.365 104.044-121.223 95.816-129.086 86.051-134.375 76.703-139.439 65.884-141.731 55.289-140.761 44.444-139.769 34.103-135.102 26.387-127.387 18.408-119.407 13.431-108.944 10.331-98.208 2.965-72.691 6.013-45.995 4.656-19.84 4.299-12.968 3.617-6.112 2.411 .665 2.129 2.246-.281 1.576 0 0" fill="#231f20"/>
<path transform="matrix(1,0,0,-1,1631.9868,697.103)" d="M0 0C-14.598-22.478-12.94-56.305-13.223-82.742-13.377-97.119-7.307-111.419-1.248-124.458 12.582-154.215 49.92-164.478 82.731-164.931 96.676-165.124 111.507-163.877 122.747-155.621 133.987-147.366 139.442-129.922 130.692-119.062 121.052-107.096 102.332-109.994 87.671-114.596 73.01-119.198 55.195-123.793 43.769-113.518 36.76-107.214 34.68-97.088 34.411-87.665 34.214-80.774 34.865-73.563 38.466-67.684 45.151-56.769 59.304-53.872 71.08-48.854 95.792-38.324 113.977-13.834 116.91 12.868 117.434 17.643 117.399 22.844 114.635 26.774 112.149 30.308 109.857 34.863 106.159 37.098 87.656 48.279 55.061 52.68 23.189 28.69Z"/>
<path transform="matrix(1,0,0,-1,1630.9075,696.4722)" d="M0 0C-7.006-10.867-10.106-23.707-11.69-36.398-13.347-49.672-13.311-63.08-13.352-76.435-13.362-79.736-13.493-83.056-13.338-86.354-13.156-90.228-12.565-94.085-11.694-97.862-9.895-105.67-6.905-113.152-3.651-120.454-1.091-126.197 1.608-131.694 5.51-136.66 8.976-141.069 13.096-144.908 17.611-148.224 27.033-155.144 38.122-159.624 49.399-162.486 61.09-165.453 73.2-166.752 85.249-166.826 98.887-166.911 113.79-165.51 124.992-156.928 133.832-150.157 139.473-137.782 136.629-126.695 135.239-121.276 131.631-116.639 126.84-113.782 121.921-110.848 116.062-109.912 110.406-109.987 104.334-110.067 98.285-111.234 92.445-112.835 86.269-114.529 80.241-116.645 73.945-117.899 67.752-119.132 61.153-119.758 54.969-118.138 48.788-116.52 43.777-112.491 40.814-106.835 37.718-100.925 36.838-94.038 36.72-87.451 36.595-80.405 37.457-73.001 41.806-67.199 45.405-62.398 50.813-59.383 56.214-57.031 61.935-54.54 67.924-52.72 73.634-50.198 85.098-45.135 95.187-37.033 102.899-27.181 110.615-17.324 116.115-5.697 118.414 6.633 119.568 12.823 120.673 20.219 117.329 25.936 115.734 28.664 113.877 31.428 111.893 33.887 110.092 36.12 107.893 37.616 105.393 38.956 95.937 44.024 85.173 46.555 74.473 46.735 61.068 46.962 47.827 43.381 36.036 37.083 32.562 35.228 29.213 33.141 26 30.864 24.912 30.093 23.767 29.416 22.928 28.378 21.26 26.314 19.591 24.249 17.922 22.184 12.995 16.088 8.068 9.992 3.14 3.896 2.159 2.682 1.177 1.467 .195 .253-.807-.987 .951-2.767 1.963-1.515 5.255 2.558 8.548 6.632 11.84 10.705 16.074 15.943 20.308 21.181 24.542 26.42 25.181 27.21 25.801 27.658 26.671 28.283 29.823 30.551 33.106 32.636 36.513 34.5 42.648 37.857 49.18 40.464 55.975 42.134 67.339 44.927 79.36 44.997 90.694 42.019 95.487 40.759 100.141 38.976 104.494 36.601 107.074 35.194 109.112 33.562 110.852 31.161 111.786 29.872 112.632 28.523 113.504 27.192 114.391 25.835 115.387 24.549 115.971 23.021 117.18 19.858 117.134 16.359 116.821 13.037 116.531 9.956 115.994 6.896 115.282 3.886 113.868-2.086 111.707-7.869 108.881-13.315 103.229-24.207 94.999-33.806 84.965-40.89 79.906-44.462 74.436-47.314 68.671-49.561 63.05-51.753 57.279-53.614 51.865-56.304 46.704-58.869 41.909-62.33 38.749-67.234 34.951-73.129 34.114-80.375 34.217-87.239 34.402-99.528 37.791-113.49 50.045-119.03 61.544-124.228 75.108-120.691 86.571-117.209 97.466-113.898 109.742-110.28 121.038-113.903 126.261-115.579 130.77-119.182 133.109-124.199 135.418-129.148 135.247-134.932 133.69-140.069 132.031-145.539 128.763-150.541 124.392-154.226 119.28-158.536 112.767-161.057 106.307-162.495 99.541-164.001 92.573-164.355 85.661-164.328 79.753-164.306 73.846-163.985 67.975-163.318 56.394-162.004 44.784-159.363 34.071-154.696 23.842-150.24 14.336-143.846 7.38-135.022 3.533-130.142 .924-124.626-1.587-118.979-4.779-111.801-7.665-104.427-9.387-96.744-10.236-92.952-10.782-89.096-10.88-85.208-10.96-82.039-10.859-78.858-10.85-75.688-10.832-69.243-10.821-62.796-10.622-56.353-10.219-43.288-9.149-30.03-5.257-17.484-3.487-11.778-1.083-6.29 2.159-1.262 3.033 .094 .87 1.349 0 0" fill="#231f20"/>
<path transform="matrix(1,0,0,-1,1390.1692,839.7366)" d="M0 0C-8.206 28.319-11.228 67.775-19.434 96.094-26.338 119.921-33.285 143.973-35.309 168.833-37.333 193.693-34.067 219.767-21.799 240.956-13.519 255.257 2.14 267.731 16.922 262.131 29.695 257.291 35.48 241.44 37.689 227.081 44.706 181.478 31.444 135.018 33.325 88.84 34.423 61.876 40.677 34.838 36.787 8.174 35.109-3.333 29.305-16.549 18.501-17.494 9.556-18.276 1.89-9.428 0 0"/>
<path transform="matrix(1,0,0,-1,1391.3746,839.40438)" d="M0 0C-5.253 18.214-7.866 37.11-11.002 55.767-12.601 65.279-14.264 74.788-16.397 84.197-18.626 94.033-21.674 103.654-24.364 113.369-30.24 134.594-35.287 156.3-35.781 178.414-36.228 198.421-33.053 219.023-23.643 236.883-19.329 245.071-13.409 252.672-5.451 257.595 1.83 262.1 10.72 263.622 18.399 259.135 25.389 255.051 29.508 247.415 32.039 239.981 35.154 230.83 36.257 221.06 36.874 211.458 38.298 189.28 35.903 167.097 33.72 145.05 31.515 122.791 29.716 100.548 31.51 78.19 33.319 55.625 37.452 32.924 34.657 10.259 33.679 2.336 31.451-6.486 25.663-12.342 23.132-14.904 19.814-16.64 16.153-16.624 11.999-16.607 8.314-14.298 5.597-11.299 2.732-8.136 .871-4.158 0 0-.33 1.574-2.74 .908-2.411-.665-.742-8.635 5.043-17.332 13.586-18.875 21.724-20.345 28.244-14.691 31.882-7.954 36.429 .466 37.507 10.267 37.941 19.676 38.482 31.419 37.503 43.167 36.316 54.842 35.124 66.578 33.703 78.307 33.311 90.106 32.929 101.583 33.458 113.069 34.347 124.51 36.14 147.581 39.425 170.561 39.77 193.729 39.939 205.071 39.393 216.458 37.596 227.669 36.253 236.049 33.86 244.637 29.197 251.817 24.734 258.69 17.87 263.91 9.464 264.383 .52 264.887-7.824 259.969-14.097 253.998-21.238 247.2-26.131 238.533-29.821 229.471-33.723 219.888-36.073 209.744-37.305 199.487-39.948 177.472-37.074 155.257-32.159 133.763-29.586 122.514-26.458 111.402-23.259 100.318-20.547 90.923-18.231 81.495-16.392 71.888-12.598 52.07-10.075 32.009-5.688 12.304-4.719 7.951-3.647 3.621-2.411-.665-1.966-2.208 .447-1.551 0 0" fill="#231f20"/>
<path transform="matrix(1,0,0,-1,1213.2379,621.01156)" d="M0 0C12.76 1.965 22.977 4.999 36.883 6.073 49.677 7.061 62.561 .299 69.902-11.022 72.342-14.785 74.115-19.258 74.262-24.052 74.592-34.792 66.923-44.303 58.801-50.513 42.017-63.347 14.875-69.316-4.008-64.365Z" fill="#ffffff"/>
<path transform="matrix(1,0,0,-1,1213.5702,622.217)" d="M0 0C6.453 1.002 12.832 2.391 19.246 3.607 25.751 4.84 32.516 6.15 39.158 6.124 50.946 6.077 62.148-.633 68.49-10.447 71.975-15.84 73.612-22.198 72.088-28.53 70.669-34.423 67.078-39.574 62.85-43.818 54.723-51.974 43.859-57.199 32.894-60.337 21.081-63.718 8.014-65.06-4.008-61.954-3.702-62.356-3.396-62.757-3.09-63.159-2.639-55.909-2.187-48.659-1.736-41.409-1.016-29.855-.297-18.3 .423-6.746 .588-4.095 .753-1.445 .918 1.205 1.018 2.812-1.483 2.806-1.582 1.205-2.034-6.045-2.485-13.295-2.937-20.545-3.656-32.099-4.376-43.654-5.095-55.208-5.26-57.858-5.425-60.509-5.59-63.159-5.624-63.695-5.179-64.234-4.672-64.365 6.686-67.299 18.934-66.403 30.23-63.632 41.823-60.788 53.327-55.717 62.326-47.745 67.007-43.598 71.054-38.559 73.377-32.711 75.86-26.461 75.682-19.709 73-13.554 68.101-2.311 56.713 6.2 44.672 8.149 37.291 9.344 29.617 7.966 22.326 6.7 14.644 5.366 7.043 3.608-.665 2.411-2.25 2.165-1.577-.245 0 0" fill="#231f20"/>
<path transform="matrix(1,0,0,-1,1661.3281,709.5123)" d="M0 0C.05 4.491 2.826 8.445 5.605 11.973 10.903 18.702 16.721 25.16 23.847 29.912 30.973 34.663 39.565 37.614 48.086 36.757 49.322 36.633 50.59 36.415 51.634 35.742 52.697 35.057 53.425 33.965 54.049 32.864 58.463 25.079 58.973 15.202 55.383 7.004 49.773-5.81 35.925-12.753 22.708-17.334 19.25-18.532 15.681-19.653 12.023-19.566 8.365-19.479 4.553-17.981 2.554-14.917-.224-10.66 .336-5.071 0 0" fill="#ffffff"/>
<path transform="matrix(1,0,0,-1,1662.5781,709.5123)" d="M0 0C.177 5.895 4.946 10.895 8.543 15.149 12.305 19.6 16.397 23.855 21.094 27.331 25.918 30.902 31.37 33.665 37.261 34.937 40.12 35.554 43.051 35.787 45.969 35.581 47.378 35.482 48.975 35.355 50.099 34.401 51.142 33.517 51.798 32.16 52.398 30.958 57.363 21.011 55.651 8.863 48.578 .405 42.085-7.36 32.552-11.978 23.216-15.385 17.612-17.431 10.731-20.076 5.078-16.773-.63-13.438 .347-5.62 0 0-.099 1.598-2.599 1.609-2.5 0-2.146-5.744-2.891-12.75 1.562-17.203 5.985-21.627 12.74-21.273 18.296-19.67 23.854-18.066 29.357-15.861 34.52-13.256 39.422-10.783 44.115-7.744 48.034-3.872 52.025 .07 55.14 4.936 56.65 10.362 58.31 16.327 58.105 22.852 56.049 28.695 55.146 31.259 53.938 34.314 51.867 36.169 49.543 38.251 45.878 38.229 42.937 38.14 36.464 37.945 30.144 35.821 24.562 32.603 18.173 28.92 12.73 23.777 7.912 18.243 5.577 15.561 3.265 12.799 1.234 9.876-.817 6.922-2.391 3.651-2.5 0-2.548-1.609-.048-1.608 0 0" fill="#231f20"/>
<path transform="matrix(1,0,0,-1,853.2719,861.10757)" d="M0 0C-8.206 30.788-11.228 73.686-19.434 104.474-26.338 130.379-33.285 156.528-35.309 183.556-37.333 210.584-34.067 238.933-21.799 261.969-13.519 277.517 2.14 291.08 16.922 284.99 29.695 279.728 35.479 262.495 37.689 246.884 44.706 197.304 31.444 146.792 33.325 96.588 34.423 67.272 40.677 37.877 36.787 8.887 35.109-3.624 29.305-17.992 18.501-19.019 9.556-19.87 1.89-10.25 0 0"/>
<path transform="matrix(1,0,0,-1,854.4772,860.77529)" d="M0 0C-5.206 19.624-7.8 39.873-10.89 59.905-12.47 70.147-14.106 80.388-16.19 90.541-18.344 101.034-21.304 111.323-23.964 121.693-29.871 144.72-34.994 168.161-35.73 192.006-36.398 213.692-33.614 236.108-24.433 255.957-20.229 265.045-14.483 273.802-6.196 279.667 1.081 284.818 10.218 286.928 18.19 281.988 25.621 277.383 29.657 268.699 32.139 260.644 35.264 250.504 36.325 239.772 36.915 229.22 38.255 205.213 35.857 181.212 33.683 157.329 31.501 133.358 29.731 109.394 31.488 85.333 33.253 61.167 37.298 36.91 34.815 12.643 33.912 3.826 32.008-6.106 26.043-13.037 23.611-15.862 20.34-18.045 16.51-18.15 12.174-18.268 8.416-15.667 5.716-12.475 2.724-8.939 .872-4.519 0 0-.304 1.578-2.714 .91-2.411-.665-.813-8.951 4.792-18.857 13.867-20.438 22.462-21.936 28.832-15.019 32.187-7.934 36.668 1.53 37.623 12.264 37.986 22.593 38.428 35.166 37.437 47.735 36.261 60.243 35.079 72.814 33.697 85.379 33.31 98.007 32.928 110.482 33.458 122.966 34.348 135.409 36.12 160.203 39.35 184.913 39.757 209.792 39.959 222.09 39.438 234.407 37.729 246.595 36.42 255.936 34.09 265.525 29.226 273.702 24.857 281.046 17.86 287.056 8.972 287.383-.456 287.729-8.957 281.729-15.06 275.076-22.18 267.315-26.899 257.704-30.416 247.856-34.17 237.345-36.377 226.323-37.481 215.231-39.855 191.381-36.853 167.404-31.859 144.073-29.248 131.877-26.099 119.805-22.895 107.753-20.223 97.705-18.028 87.594-16.241 77.351-12.519 56.024-10.008 34.484-5.654 13.268-4.695 8.596-3.634 3.946-2.411-.665-1.999-2.218 .414-1.559 0 0" fill="#231f20"/>
<path transform="matrix(1,0,0,-1,953.7399,815.4286)" d="M0 0C-.789 13.569-1.539 27.48 2.452 40.473 4.194 46.144 6.819 51.533 10.109 56.47 11.897 59.154 13.948 61.767 16.71 63.433 18.788 64.687 21.184 65.345 23.594 65.631 25.282 65.83 27.017 65.85 28.655 65.397 31.727 64.548 34.125 62.136 35.972 59.538 40.743 52.823 42.723 44.367 42.399 36.136 42.075 27.905 39.562 19.874 36.024 12.436 32.618 5.275 28.169-1.514 22.136-6.659 19.823-8.632 17.238-10.375 14.318-11.218 11.397-12.061 8.092-11.914 5.509-10.312 4.2-9.5 3.12-8.347 2.28-7.055 .757-4.711 .008-1.872 .177 .919" fill="#ffffff"/>
<path transform="matrix(1,0,0,-1,954.9899,815.4286)" d="M0 0C-.754 12.99-1.539 26.353 2.075 39.018 3.783 45.004 6.488 50.664 9.938 55.839 11.518 58.209 13.323 60.578 15.749 62.14 18.335 63.806 21.601 64.568 24.661 64.514 30.679 64.408 34.404 58.575 36.661 53.669 39.111 48.347 40.087 42.386 39.914 36.554 39.722 30.114 38.116 23.786 35.763 17.811 33.607 12.335 30.829 7.023 27.371 2.255 25.438-.41 23.238-2.89 20.786-5.089 18.351-7.273 15.57-9.299 12.352-10.117 9.323-10.887 5.962-10.458 3.627-8.25 1.141-5.899 .029-2.443 .177 .919 .248 2.527-2.253 2.524-2.323 .919-2.594-5.254 1.137-11.83 7.615-12.82 13.981-13.793 19.605-9.798 23.922-5.576 28.476-1.12 32.059 4.268 34.932 9.93 38.119 16.208 40.634 22.929 41.756 29.899 42.797 36.364 42.669 43.016 40.886 49.344 39.286 55.024 36.294 61.236 31.407 64.795 26.237 68.56 18.229 67.249 13.379 63.507 10.878 61.577 8.992 58.988 7.291 56.357 5.439 53.492 3.809 50.483 2.443 47.356-4.102 32.367-3.427 15.971-2.5 0-2.407-1.599 .094-1.61 0 0" fill="#231f20"/>
<path transform="matrix(1,0,0,-1,682.9141,808.7018)" d="M0 0C-.789 13.569-1.539 27.48 2.452 40.473 4.194 46.144 6.819 51.533 10.109 56.47 11.897 59.153 13.948 61.767 16.71 63.433 18.788 64.687 21.184 65.345 23.594 65.631 25.282 65.83 27.017 65.85 28.655 65.397 31.727 64.548 34.125 62.136 35.972 59.538 40.743 52.823 42.723 44.367 42.399 36.136 42.075 27.905 39.562 19.874 36.024 12.436 32.618 5.275 28.169-1.514 22.136-6.659 19.823-8.632 17.238-10.375 14.318-11.218 11.397-12.061 8.092-11.914 5.509-10.312 4.2-9.5 3.12-8.347 2.28-7.055 .757-4.711 .008-1.872 .177 .919" fill="#ffffff"/>
<path transform="matrix(1,0,0,-1,684.1641,808.7018)" d="M0 0C-.754 12.99-1.539 26.353 2.075 39.018 3.783 45.004 6.488 50.664 9.938 55.839 11.518 58.209 13.323 60.578 15.749 62.14 18.335 63.806 21.601 64.568 24.661 64.514 30.679 64.408 34.404 58.575 36.661 53.669 39.111 48.347 40.087 42.386 39.914 36.554 39.722 30.114 38.116 23.786 35.763 17.811 33.607 12.335 30.829 7.023 27.371 2.255 25.438-.41 23.238-2.89 20.786-5.089 18.351-7.273 15.57-9.299 12.352-10.117 9.323-10.887 5.962-10.458 3.627-8.25 1.141-5.899 .029-2.443 .177 .919 .248 2.527-2.253 2.524-2.323 .919-2.594-5.254 1.137-11.83 7.615-12.82 13.981-13.793 19.605-9.798 23.922-5.576 28.476-1.12 32.059 4.268 34.932 9.93 38.119 16.208 40.634 22.929 41.756 29.899 42.797 36.364 42.669 43.016 40.887 49.344 39.286 55.024 36.294 61.236 31.407 64.795 26.237 68.56 18.229 67.249 13.379 63.507 10.878 61.577 8.992 58.988 7.291 56.357 5.439 53.492 3.809 50.483 2.443 47.356-4.102 32.366-3.427 15.971-2.5 0-2.407-1.599 .094-1.61 0 0" fill="#231f20"/>
</g>
</svg>
